<svg width="22" height="22" viewBox="0 0 22 22" fill="none" xmlns="http://www.w3.org/2000/svg">
<path d="M11 0C9.55546 0 8.12506 0.284523 6.79048 0.837325C5.4559 1.39013 4.24327 2.20038 3.22183 3.22183C1.15893 5.28473 0 8.08262 0 11C0 13.9174 1.15893 16.7153 3.22183 18.7782C4.24327 19.7996 5.4559 20.6099 6.79048 21.1627C8.12506 21.7155 9.55546 22 11 22C13.9174 22 16.7153 20.8411 18.7782 18.7782C20.8411 16.7153 22 13.9174 22 11C22 9.55546 21.7155 8.12506 21.1627 6.79048C20.6099 5.4559 19.7996 4.24327 18.7782 3.22183C17.7567 2.20038 16.5441 1.39013 15.2095 0.837325C13.8749 0.284523 12.4445 0 11 0ZM11 2.2C13.3339 2.2 15.5722 3.12714 17.2225 4.77746C18.8729 6.42778 19.8 8.66609 19.8 11C19.8 13.64 18.7 15.95 16.83 17.6C15.29 16.17 13.2 15.4 11 15.4C8.8 15.4 6.82 16.17 5.17 17.6C3.3 15.95 2.2 13.64 2.2 11C2.2 8.66609 3.12714 6.42778 4.77746 4.77746C6.42778 3.12714 8.66609 2.2 11 2.2ZM13.2 4.279C12.782 4.29 12.386 4.565 12.21 4.994L10.791 8.547L10.681 8.8C9.9 8.943 9.251 9.46 8.954 10.186C8.503 11.319 9.053 12.595 10.186 13.046C11.319 13.497 12.595 12.947 13.046 11.814C13.332 11.088 13.2 10.252 12.727 9.636L12.837 9.35L14.256 5.819L14.267 5.786C14.487 5.225 14.212 4.587 13.651 4.356C13.508 4.301 13.365 4.279 13.2 4.279ZM8.8 4.4C8.50826 4.4 8.22847 4.51589 8.02218 4.72218C7.81589 4.92847 7.7 5.20826 7.7 5.5C7.7 5.79174 7.81589 6.07153 8.02218 6.27782C8.22847 6.48411 8.50826 6.6 8.8 6.6C9.09174 6.6 9.37153 6.48411 9.57782 6.27782C9.78411 6.07153 9.9 5.79174 9.9 5.5C9.9 5.20826 9.78411 4.92847 9.57782 4.72218C9.37153 4.51589 9.09174 4.4 8.8 4.4ZM5.5 7.7C5.20826 7.7 4.92847 7.81589 4.72218 8.02218C4.51589 8.22847 4.4 8.50826 4.4 8.8C4.4 9.09174 4.51589 9.37153 4.72218 9.57782C4.92847 9.78411 5.20826 9.9 5.5 9.9C5.79174 9.9 6.07153 9.78411 6.27782 9.57782C6.48411 9.37153 6.6 9.09174 6.6 8.8C6.6 8.50826 6.48411 8.22847 6.27782 8.02218C6.07153 7.81589 5.79174 7.7 5.5 7.7ZM16.5 7.7C16.2083 7.7 15.9285 7.81589 15.7222 8.02218C15.5159 8.22847 15.4 8.50826 15.4 8.8C15.4 9.09174 15.5159 9.37153 15.7222 9.57782C15.9285 9.78411 16.2083 9.9 16.5 9.9C16.7917 9.9 17.0715 9.78411 17.2778 9.57782C17.4841 9.37153 17.6 9.09174 17.6 8.8C17.6 8.50826 17.4841 8.22847 17.2778 8.02218C17.0715 7.81589 16.7917 7.7 16.5 7.7Z" fill="black"/>
</svg>
