<svg width="53" height="53" viewBox="0 0 53 53" fill="none" xmlns="http://www.w3.org/2000/svg">
<path d="M35.3333 30.9167C40.2119 30.9167 44.1667 26.9618 44.1667 22.0833C44.1667 17.2048 40.2119 13.25 35.3333 13.25C30.4548 13.25 26.5 17.2048 26.5 22.0833C26.5 26.9618 30.4548 30.9167 35.3333 30.9167Z" fill="url(#paint0_linear_4_8)"/>
<path d="M34.185 6.02876L34.7592 9.29047C35.1434 11.4657 31.8795 12.0398 31.4975 9.86463L30.9233 6.60293C30.539 4.42772 33.803 3.85355 34.185 6.02876ZM45.8737 9.91763L43.9745 12.6317C42.707 14.4403 39.9951 12.5411 41.2605 10.7325L43.1597 8.01847C44.4273 6.20984 47.1391 8.10901 45.8737 9.91763ZM23.1698 11.543L25.8839 13.4421C27.6925 14.7097 25.7933 17.4216 23.9847 16.1562L21.2707 14.257C19.462 12.9894 21.3612 10.2776 23.1698 11.543ZM46.6864 28.0083L49.4004 29.9075C51.209 31.1751 49.3099 33.8869 47.5013 32.6215L44.7872 30.7223C42.9786 29.4548 44.8778 26.7429 46.6864 28.0083ZM51.3901 20.9328L48.1284 21.507C45.9532 21.8912 45.379 18.6273 47.5543 18.2453L50.816 17.6711C52.9912 17.2868 53.5653 20.5508 51.3901 20.9328Z" fill="#FFB300"/>
<path d="M13.25 41.9584C8.3718 41.9584 4.41667 38.0032 4.41667 33.125C4.41667 28.2468 8.3718 24.2917 13.25 24.2917C14.1709 24.2917 15.0564 24.433 15.8912 24.6936C17.1345 20.6259 20.9195 17.6667 25.3958 17.6667C30.8835 17.6667 35.3333 22.1165 35.3333 27.6042C35.3333 28.1231 35.2936 28.6311 35.2163 29.1279C35.9406 28.8563 36.7224 28.7084 37.5417 28.7084C41.2009 28.7084 44.1667 31.6741 44.1667 35.3334C44.1667 38.9926 41.2009 41.9584 37.5417 41.9584H13.25Z" fill="url(#paint1_linear_4_8)"/>
<path d="M15.4583 27.6042C15.4583 33.0919 19.9081 37.5417 25.3958 37.5417C30.3668 37.5417 34.4831 33.8935 35.2163 29.1279C35.9406 28.8563 36.7224 28.7084 37.5417 28.7084C41.2009 28.7084 44.1667 31.6741 44.1667 35.3334C44.1667 38.9926 41.2009 41.9584 37.5417 41.9584H13.25C8.3718 41.9584 4.41667 38.0032 4.41667 33.125C4.41667 28.2468 8.3718 24.2917 13.25 24.2917C14.1709 24.2917 15.0564 24.433 15.8912 24.6936C15.6085 25.6145 15.4583 26.5906 15.4583 27.6042Z" fill="url(#paint2_radial_4_8)"/>
<defs>
<linearGradient id="paint0_linear_4_8" x1="1793.17" y1="13.25" x2="554.645" y2="1235.82" gradientUnits="userSpaceOnUse">
<stop stop-color="#FFB301"/>
<stop offset="1" stop-color="#FFC533"/>
</linearGradient>
<linearGradient id="paint1_linear_4_8" x1="1991.92" y1="17.6667" x2="1991.92" y2="2446.83" gradientUnits="userSpaceOnUse">
<stop stop-color="#9FC7FF"/>
<stop offset="1" stop-color="#9BC1F5"/>
</linearGradient>
<radialGradient id="paint2_radial_4_8" cx="0" cy="0" r="1" gradientUnits="userSpaceOnUse" gradientTransform="translate(146.61 -2212.47) rotate(-90) scale(2314.05 739.466)">
<stop stop-color="#486DA8" stop-opacity="0.4"/>
<stop offset="1" stop-color="#486DA8" stop-opacity="0"/>
</radialGradient>
</defs>
</svg>
