<svg width="24" height="22" viewBox="0 0 24 22" fill="none" xmlns="http://www.w3.org/2000/svg">
<path d="M19.0906 22C16.5009 22 14.3871 19.8862 14.3871 17.2965V16.7432C14.3871 16.2894 14.7634 15.9131 15.2171 15.9131C15.6709 15.9131 16.0472 16.2894 16.0472 16.7432V17.2965C16.0472 18.9787 17.4084 20.3399 19.0906 20.3399C20.7728 20.3399 22.134 18.9787 22.134 17.2965C22.134 15.6143 20.7728 14.2531 19.0906 14.2531H0.830025C0.376278 14.2531 0 13.8768 0 13.4231C0 12.9693 0.376278 12.593 0.830025 12.593H19.0906C21.6803 12.593 23.7941 14.7068 23.7941 17.2965C23.7941 19.8862 21.6803 22 19.0906 22Z" fill="#292D32"/>
<path d="M19.0906 10.933H0.830025C0.376278 10.933 0 10.5567 0 10.103C0 9.64921 0.376278 9.27293 0.830025 9.27293H19.0906C20.7728 9.27293 22.134 7.91169 22.134 6.22951C22.134 4.54732 20.7728 3.18608 19.0906 3.18608C17.4084 3.18608 16.0472 4.54732 16.0472 6.22951V6.78286C16.0472 7.23661 15.6709 7.61288 15.2171 7.61288C14.7634 7.61288 14.3871 7.23661 14.3871 6.78286V6.22951C14.3871 3.63983 16.5009 1.52603 19.0906 1.52603C21.6803 1.52603 23.7941 3.63983 23.7941 6.22951C23.7941 8.81919 21.6803 10.933 19.0906 10.933Z" fill="#292D32"/>
<path d="M8.92001 7.6141H0.830025C0.376278 7.6141 0 7.23782 0 6.78407C0 6.33033 0.376278 5.95405 0.830025 5.95405H8.92001C10.1042 5.95405 11.067 4.99122 11.067 3.80705C11.067 2.62288 10.1042 1.66005 8.92001 1.66005C7.73584 1.66005 6.77301 2.62288 6.77301 3.80705V4.2276C6.77301 4.68134 6.39673 5.05762 5.94298 5.05762C5.48923 5.05762 5.11296 4.69241 5.11296 4.2276V3.80705C5.11296 1.70432 6.81728 0 8.92001 0C11.0227 0 12.7271 1.70432 12.7271 3.80705C12.7271 5.90978 11.0227 7.6141 8.92001 7.6141Z" fill="#292D32"/>
</svg>
